/* XPM */
static char *result[] = {
/* columns rows colors chars-per-pixel */
"64 64 217 2 ",
"   c #000017",
".  c #00001B",
"X  c #000E1A",
"o  c #190917",
"O  c #00131A",
"+  c #001D19",
"@  c #0B1B19",
"#  c #0D1419",
"$  c #151719",
"%  c #240216",
"&  c #2A0014",
"*  c #240A17",
"=  c #250019",
"-  c #280018",
";  c #260D18",
":  c #241516",
">  c #231419",
",  c #231B19",
"<  c #2D1C19",
"1  c #271516",
"2  c #3E191A",
"3  c #3F1117",
"4  c #00241C",
"5  c #002A1D",
"6  c #00311E",
"7  c #192D1C",
"8  c #23231C",
"9  c #232C1D",
"0  c #272B1B",
"q  c #3D2119",
"w  c #23331C",
"e  c #233B1B",
"r  c #1F2B21",
"t  c #003C22",
"y  c #1D3325",
"u  c #1C3B25",
"i  c #173F2B",
"p  c #212C21",
"a  c #233724",
"s  c #5B091B",
"d  c #431C1A",
"f  c #4B1C1B",
"g  c #4A1519",
"h  c #5E141B",
"j  c #511A1A",
"k  c #5D1C1B",
"l  c #591B17",
"z  c #64031B",
"x  c #66071B",
"c  c #7C021C",
"v  c #63191A",
"b  c #68161A",
"n  c #7F101B",
"m  c #741A1C",
"M  c #7B1B1D",
"N  c #72171A",
"B  c #4C201C",
"V  c #55251A",
"C  c #5C2919",
"Z  c #5B2919",
"A  c #642D1A",
"S  c #682E17",
"D  c #79251B",
"F  c #7E3415",
"G  c #703016",
"H  c #1F4B19",
"J  c #1E541A",
"K  c #1D5B1A",
"L  c #25431C",
"P  c #23501D",
"I  c #1D631B",
"U  c #1C6D1C",
"Y  c #167B1B",
"T  c #17741A",
"R  c #20731F",
"E  c #004B25",
"W  c #044623",
"Q  c #1E4322",
"!  c #1D4B25",
"~  c #17492D",
"^  c #005729",
"/  c #1D5427",
"(  c #19532C",
")  c #155C2B",
"_  c #1A5C2B",
"`  c #1F5924",
"'  c #224525",
"]  c #214A25",
"[  c #205428",
"{  c #00642C",
"}  c #0D632E",
"|  c #0E6A2F",
" . c #036A2E",
".. c #14632C",
"X. c #146A2E",
"o. c #1F6B21",
"O. c #0A7C2D",
"+. c #1A7224",
"@. c #0F6430",
"#. c #0B6C30",
"$. c #057530",
"%. c #097231",
"&. c #067830",
"*. c #80001D",
"=. c #96001D",
"-. c #9A041C",
";. c #83131C",
":. c #8C141B",
">. c #841B1D",
",. c #93141C",
"<. c #9C141C",
"1. c #9D1F1B",
"2. c #A5041C",
"3. c #AB051C",
"4. c #A50E1B",
"5. c #AC0C1C",
"6. c #B30D1B",
"7. c #B90E1B",
"8. c #A4121C",
"9. c #AD111B",
"0. c #A1191C",
"q. c #AC1A1A",
"w. c #B3121B",
"e. c #BB141A",
"r. c #B41A1B",
"t. c #BD1B19",
"y. c #892B17",
"u. c #8B3914",
"i. c #823519",
"p. c #823615",
"a. c #943C14",
"s. c #9B3D14",
"d. c #9A3616",
"f. c #973215",
"g. c #BF2119",
"h. c #B2201A",
"j. c #A93616",
"k. c #B33418",
"l. c #A2370F",
"z. c #CC1D17",
"x. c #C21B19",
"c. c #CA1E18",
"v. c #C3161A",
"b. c #D01B17",
"n. c #CC2417",
"m. c #CE2D16",
"M. c #C52218",
"N. c #C92618",
"B. c #D52416",
"V. c #D42916",
"C. c #DB2D14",
"Z. c #D92615",
"A. c #C93915",
"S. c #CD3616",
"D. c #DE3213",
"F. c #D43B14",
"G. c #DA3B13",
"H. c #D53214",
"J. c #E23412",
"K. c #E33A11",
"L. c #E93C10",
"P. c #E73E0F",
"I. c #B4470E",
"U. c #A44114",
"Y. c #AC4511",
"T. c #B24614",
"R. c #B44815",
"E. c #BC4913",
"W. c #BA4714",
"Q. c #C64E0D",
"!. c #CB4E0C",
"~. c #C5440F",
"^. c #D84D0D",
"/. c #CC520A",
"(. c #C7500C",
"). c #D4520C",
"_. c #DE550A",
"`. c #DF580A",
"'. c #C54513",
"]. c #D74F11",
"[. c #DC4112",
"{. c #D95010",
"}. c #E5430F",
"|. c #EB450D",
" X c #E54E0D",
".X c #EB4B0C",
"XX c #F24A0B",
"oX c #EA5B04",
"OX c #E3550A",
"+X c #EB520A",
"@X c #E35909",
"#X c #E85805",
"$X c #F45506",
"%X c #FA5406",
"&X c #F55B03",
"*X c #FC5D01",
"=X c #F25209",
"-X c #E54610",
";X c #FE6300",
":X c #FF6800",
">X c #F56000",
",X c #0C8F1D",
"<X c #14821C",
"1X c #148B1D",
"2X c #049C1E",
"3X c #0A931D",
"4X c #13901E",
"5X c #04862C",
"6X c #01892C",
"7X c #0A8C26",
"8X c #148422",
"9X c #118B21",
"0X c #039524",
"qX c #019B23",
"wX c #009828",
"eX c #00A222",
"rX c #bbbbebff",
/* pixels */
"rXrXrXrXrXrXrXrXrXrXrXrXrXrXrXrXrXrXrXrXrXrXrXrXrXrXrXrXrXrXrXrXrXrXrXrXrXrXrXrXrXrXrXrXrXrXrXrXrXrXrXrXrXrXrXrXrXrXrXrXrXrXrXrX",
"rXrXrXrXrXrXrXrXrXrXrXrXrXrXrXrXrXrXrXrXrXrXrXrXrXrXrXrXrXrXrXrXrXrXrXrXrXrXrXrXrXrXrXrXrXrXrXrXrXrXrXrXrXrXrXrXrXrXrXrXrXrXrXrX",
"rXrXrXrXrXrXrXrXrXrXrXrXrXrXrXrXrXrXrXrXrXrXrXrXrXrXrXrXrXrXrXrXrXrXrXrXrXrXrXrXrXrXrXrXrXrXrXrXrXrXrXrXrXrXrXrXrXrXrXrXrXrXrXrX",
"rXrXrXrXrXrXrXrXrXrXrXrXrXrXrXrXrXrXrXrXrXrXrXrXrXrXrXrXrXrXrXrXrXrXrXrXrXrXrXrXrXrXrXrXrXrXrXrXrXrXrXrXrXrXrXrXrXrXrXrXrXrXrXrX",
"rXrXrXrXrXrXrXrXrXrXrXrXrXrXrXrXrXrXrXrXrXrXrXrXrXrXrXrXrXrXrXrXrXrXrXrXrXrXrXrXrXrXrXrXrXrXrXrXrXrXrXrXrXrXrXrXrXrXrXrXrXrXrXrX",
"rXrXrXrXrXrXrXrXrXrXrXrXrXrXrXrXrXrXrXrXrXrXrXrXrXrXrXrXrXrXrXrXrXrXrXrXrXrXrXrXrXrXrXrXrXrXrXrXrXrXrXrXrXrXrXrXrXrXrXrXrXrXrXrX",
"rXrXrXrXrXrXrXrXrXrXrXrXrXrXrXrXrXrXrXrXrXrXrXrXrXrXrXrXrXrXrXrXrXrXrXrXrXrXrXrXrXrXrXrXrXrXrXrXrXrXrXrXrXrXrXrXrXrXrXrXrXrXrXrX",
"rXrXrXrXrXrXrXrXrXrXrXrXrXrXrXrXrXrXrXrXrXrXrXrXrXrXrXrXrXrXrXrXrXrXrXrXrXrXrXrXrXrXrXrXrXrXrXrXrXrXrXrXrXrXrXrXrXrXrXrXrXrXrXrX",
"rXrXrXrXrXrXrXrXrXrXrXrXrXrXrXrXrX= % = = = % rXrXrXrXrXrXrXrXrXrXrXrXrXrXrXrXrXrXrXrXrXrXrXrXrXrXrXrXrXrXrXrXrXrXrXrXrXrXrXrXrX",
"rXrXrXrXrXrXrXrXrXrXrXrXrXrXrXrX= % = = = = = = rXrXrXrXrXrXrXrXrXrXrXrXrXrXrXrXrXrXrXrXrXrXrXrXrXrXrXrXrXrXrXrXrXrXrXrXrXrXrXrX",
"rXrXrXrXrXrXrXrXrXrXrXrXrXrXrXrXw e L L L L w e rXrXrXrXrXrXrXrXrXrXrXrXrXrXrXrXrXrXrXrXrXrXrXrXrXrXrXrXrXrXrXrXrXrXrXrXrXrXrXrX",
"rXrXrXrXrXrXrXrXrXrXrXrXrXrXrXL J I o.U R o.I J H rXrXrXrXrXrXrXrXrXrXrXrXrXrXrXrXrXrXrXrXrXrXrXrXrXrXrXrXrXrXrXrXrXrXrXrXrXrXrX",
"rXrXrXrXrXrXrXrXrXrXrXrXrX- > J U Y 1X4X4X1XY U J 0 & rXrXrXrXrXrXrXrXrXrXrXrXrXrXrXrXrXrXrXrXrXrXrXrXrXrXrXrXrXrXrXrXrXrXrXrXrX",
"rXrXrXrXrXrXrXrXrXrXrXrX- = 8 K Y ,X2X2X2X2X,XY K w % % rXrXrXrXrXrXrXrXrXrXrXrXrXrXrXrXrXrXrXrXrXrXrXrXrXrXrXrXrXrXrXrXrXrXrXrX",
"rXrXrXrXrXrXrXrXrXrXrXrX1 0 P U 8X0XeXeXeXqX0X8Xo.] > = rXrXrXrXrXrXrXrXrXrXrXrXrXrXrXrXrXrXrXrXrXrXrXrXrXrXrXrXrXrXrXrXrXrXrXrX",
"rXrXrXrXrXrXrXrXrXrXrXL J I +.8X9X0XwXwXwXwX7X7X+.` Q y w rXrXrXrXrXrXrXrXrXrXrXrXrXrXrXrXrXrXrXrXrXrXrXrXrXrXrXrXrXrXrXrXrXrXrX",
"rXrXrXrXrXrXrXrXrX= w K T Y 4X7X7X5X6X6X6X6X5XO.O.X.) ! H 8 % rXrXrXrXrXrX% % % - % % - * ; > rXrXrXrXrXrXrXrXrXrXrXrXrXrXrXrXrX",
"rXrXrXrXrXrXrXrX= = e I <X3X2X0X6X&.$.$.&.&.&.&.$.%.X.) Q r % & rXrXrXrX% * * & & % * 1 : > > > rXrXrXrXrXrXrXrXrXrXrXrXrXrXrXrX",
"rXrXrXrXrXrXrXrX% = e I <X3X2X7XO.| | @.@.| | #.| %.| ) ! w * % rXrXrXrX9 9 w w w w p p 9 8 8 8 rXrXrXrXrXrXrXrXrXrXrXrXrXrXrXrX",
"rXrXrXrXrXrXrXrXrX= w K T <X9XO.+.) ( ( ( ( ) ) ......` ' 9 > % % rXrXu Q ! [ [ / ! ] ' ' a r r 8 rXrXrXrXrXrXrXrXrXrXrXrXrXrXrX",
"rXrXrXrXrXrXrXrXrXrXrXJ K I o.o.[ ] Q ' ] ] ] ! ! ! ! u w 8 > = % % 9 Q ) ) X.X.X.X..._ ~ ~ i y r 8 : rXrXrXrXrXrXrXrXrXrXrXrXrX",
"rXrXrXrXrXrXrXrXrXrXrXrXe e L e e w p 9 p p p 9 9 9 9 9 8 8 , > % * 9 ! ) | %.%.%.%.| ..} ~ i y p 8 > ; rXrXrXrXrXrXrXrXrXrXrXrX",
"rXrXrXrXrXrXrXrXrXrXrXrX= = = = = % * * * & * * * o o > > , , > % * 9 ! )  .$.$.$.%.| @.( ~ ~ y p 8 > : rXrXrXrXrXrXrXrXrXrXrXrX",
"rXrXrXrXrXrXrXrXrXrXrXrXrX= = % % % & & & & o           O + @ @ # # 5 W E ^ { { { } _ ( ( ~ y y r 8 1 rXrXrXrXrXrXrXrXrXrXrXrXrX",
"rXrXrXrXrXrXrXrXrXrXrXrXrXrXrXrXrXrXrXrXrXrXrX      . X O + + + O + 4 6 t W E E E W ] ' ' a r r 9 rXrXrXrXrXrXrXrXrXrXrXrXrXrXrX",
"rXrXrXrXrXrXrXrXrXrXrXrXrXrXrXrXrXrXrXrXrXrXrXrXX X O O + + + + + + + + 4 4 4 5 5 7 w 0 0 0 8 8 rXrXrXrXrXrXrXrXrXrXrXrXrXrXrXrX",
"rXrXrXrXrXrXrXrXrXrXrXrXrXrXrXrXrXrXrXrXrXrXrXrXC C C C B d 2 3 2 d d g l V l j 3 ; o o > 1 1 1 rXrXrXrXrXrXrXrXrXrXrXrXrXrXrXrX",
"rXrXrXrXrXrXrXrXrXrXrXrXrXrXrXrXrXrXrXrXrXrXrXF s.U.U.d.y.N x s s x N y.f.l.l.y.v =     . * 1 rXrXrXrXrXrXrXrXrXrXrXrXrXrXrXrXrX",
"rXrXrXrXrXrXrXrXrXrXrXrXrXrXrXrXrXrXrXrXrX. + p.I.).).'.k.,.*.c c *.,.j.~./.!.I.p.#   .   rXrXrXrXrXrXrXrXrXrXrXrXrXrXrXrXrXrXrX",
"rXrXrXrXrXrXrXrXrXrXrXrXrXrXrXrXrXrXrXrX. . B a./.oX$XOXA.q.=.=.=.=.q.A.OX&XoX/.s.q . . rXrXrXrXrXrXrXrXrXrXrXrXrXrXrXrXrXrXrXrX",
"rXrXrXrXrXrXrXrXrXrXrXrXrXrXrXrXrXrXrXrX+ q i.E.@X;X*X=X[.N.r.6.6.r.N.[.=X*X*XOXW.F B + rXrXrXrXrXrXrXrXrXrXrXrXrXrXrXrXrXrXrXrX",
"rXrXrXrXrXrXrXrXrXrXrXrXrXrXrXrXrXrXrXS F a.W.{.#X$X%X=X XF.F.S.S.S.F.}.=X%X$X+X).T.a.p.S rXrXrXrXrXrXrXrXrXrXrXrXrXrXrXrXrXrXrX",
"rXrXrXrXrXrXrXrXrXrXrXrXrXrXrXrXrX. + F Y.(.OX+X.X|.|..X X X X X X X X.X.X|..X.X+X`.(.Y.F + . rXrXrXrXrXrXrXrXrXrXrXrXrXrXrXrXrX",
"rXrXrXrXrXrXrXrXrXrXrXrXrXrXrXrX.   q a.(.oX&X%X.XK.G.}..X$X&X&X&X&X&X.X}.J.K..X$X*XoX(.a.q . . rXrXrXrXrXrXrXrXrXrXrXrXrXrXrXrX",
"rXrXrXrXrXrXrXrXrXrXrXrXrXrXrXrX+ q i.W._.&X*X%XP.C.D.P.=X*X:X:X:X;X*X=X}.C.C.P.%X*X&X@XE.i.q + rXrXrXrXrXrXrXrXrXrXrXrXrXrXrXrX",
"rXrXrXrXrXrXrXrXrXrXrXrXrXrXrXG F a.W.].+X$X%XXXL.C.C.}.$X;X:X:X:X:X;X=X|.C.C.L.XX%X$X+X].W.a.F G rXrXrXrXrXrXrXrXrXrXrXrXrXrXrX",
"rXrXrXrXrXrXrXrXrXrXrXrXrXX V u.Y.Q.{.+X.X}.|.J.D.Z.J.|.$X;X;X:X:X:X;X$X|.J.C.J.L.|.XX.X+X_.Q.Y.u.Z X rXrXrXrXrXrXrXrXrXrXrXrXrX",
"rXrXrXrXrXrXrXrXrXrXrXrX. O Z s.(.#X&X=X|.K.D.C.Z.C.D.|.=X&X;X;X:X;X*X$X|.J.C.C.C.J.K.|.$X&X#XQ.s.Z X . rXrXrXrXrXrXrXrXrXrXrXrX",
"rXrXrXrXrXrXrXrXrXrXrXrX. O A R._.*X;X%XXXK.C.C.C.C.J.}.=X&X*X*X*X&X&X.X}.D.Z.B.b.Z.J.|.%X;X*X`.Y.A O . rXrXrXrXrXrXrXrXrXrXrXrX",
"rXrXrXrXrXrXrXrXrXrXrXrX. O A R.@X;X:X;X$X}.P.J.D.D.D.}.|.=X$X$X$X$X.X XF.V.z.z.b.B.J.XX*X;X:X@XR.A X . rXrXrXrXrXrXrXrXrXrXrXrX",
"rXrXrXrXrXrXrXrXrXrXrXrX. O A T.`.;X;X;X*X$X=X|.P.J.D.J.P.|.|..X.X|.}.F.m.g.t.x.z.B.K.XX*X;X;X@XR.A X . rXrXrXrXrXrXrXrXrXrXrXrX",
"rXrXrXrXrXrXrXrXrXrXrXrX. X C Y.).&X;X:X:X*X&X=X}.K.C.D.D.K.K.K.K.K.D.m.M.r.9.e.z.B.K.XX%X;X>X_.Y.A X . rXrXrXrXrXrXrXrXrXrXrXrX",
"rXrXrXrXrXrXrXrXrXrXrXrX. O C j.!.+X*X;X;X;X&X=X}.G.B.B.Z.B.V.Z.C.C.Z.n.t.w.w.t.z.C.J.|.%X&XoX).U.C O . rXrXrXrXrXrXrXrXrXrXrXrX",
"rXrXrXrXrXrXrXrXrXrXrXrXX O Z d.'.^.+X=X$X$X=X.X[.V.n.c.z.z.n.B.Z.C.C.n.M.t.t.M.B.C.J.P.|.XX^.Q.d.Z O X rXrXrXrXrXrXrXrXrXrXrXrX",
"rXrXrXrXrXrXrXrXrXrXrXrXO + V y.k.A.G.-X}..X|.G.H.N.t.t.e.e.x.n.B.C.C.C.B.n.n.Z.C.C.D.J.G.G.S.k.f.V + O rXrXrXrXrXrXrXrXrXrXrXrX",
"rXrXrXrXrXrXrXrXrXrXrXrX+ + B M 1.r.M.V.D.K.G.D.N.e.9.5.9.w.r.M.n.C.D.D.D.C.C.C.D.D.D.C.n.M.h.1.M B + 4 rXrXrXrXrXrXrXrXrXrXrXrX",
"rXrXrXrXrXrXrXrXrXrXrXrX+ + 2 b c =.3.v.n.V.Z.n.t.w.2.2.2.3.w.t.n.C.D.D.D.D.C.D.D.D.V.n.t.3.=.*.h 2 + + rXrXrXrXrXrXrXrXrXrXrXrX",
"rXrXrXrXrXrXrXrXrXrXrXrXrX+ 2 h x c =.5.v.z.z.c.t.9.2.2.2.2.w.g.m.C.J.K.K.J.J.D.D.Z.N.t.9.=.c z s 2 + rXrXrXrXrXrXrXrXrXrXrXrXrX",
"rXrXrXrXrXrXrXrXrXrXrXrXrXrXrXg g s ;.0.r.x.v.v.e.5.5.5.2.2.r.x.V.D.J.J.J.J.D.C.V.c.t.9.<.;.h g d rXrXrXrXrXrXrXrXrXrXrXrXrXrXrX",
"rXrXrXrXrXrXrXrXrXrXrXrXrXrXrXrX@ < k >.0.w.e.7.e.6.5.5.5.5.w.x.V.C.J.J.J.J.D.Z.c.v.w.<.>.k < @ rXrXrXrXrXrXrXrXrXrXrXrXrXrXrXrX",
"rXrXrXrXrXrXrXrXrXrXrXrXrXrXrXrX+ 4 < v ;.<.5.5.5.w.w.5.5.5.w.t.N.V.D.D.D.D.H.N.M.9.-.;.h < + 4 rXrXrXrXrXrXrXrXrXrXrXrXrXrXrXrX",
"rXrXrXrXrXrXrXrXrXrXrXrXrXrXrXrXrX+ @ j N ;.,.4.9.5.w.6.6.6.w.t.M.N.V.Z.B.B.N.M.r.<.;.b f + + rXrXrXrXrXrXrXrXrXrXrXrXrXrXrXrXrX",
"rXrXrXrXrXrXrXrXrXrXrXrXrXrXrXrXrXrXrXd j b >.,.8.w.7.7.6.6.e.e.v.x.x.n.c.c.x.r.0.>.k f 2 rXrXrXrXrXrXrXrXrXrXrXrXrXrXrXrXrXrXrX",
"rXrXrXrXrXrXrXrXrXrXrXrXrXrXrXrXrXrXrXrX$ p k >.<.9.6.e.7.6.6.r.e.e.e.e.v.e.w.0.>.k < @ rXrXrXrXrXrXrXrXrXrXrXrXrXrXrXrXrXrXrXrX",
"rXrXrXrXrXrXrXrXrXrXrXrXrXrXrXrXrXrXrXrX4 + < v :.8.9.9.9.8.9.8.8.2.4.5.3.5.<.;.b < + 4 rXrXrXrXrXrXrXrXrXrXrXrXrXrXrXrXrXrXrXrX",
"rXrXrXrXrXrXrXrXrXrXrXrXrXrXrXrXrXrXrXrXrX+ $ k m :.<.<.<.,.,.,.:.,.:.,.,.,.;.m k @ + rXrXrXrXrXrXrXrXrXrXrXrXrXrXrXrXrXrXrXrXrX",
"rXrXrXrXrXrXrXrXrXrXrXrXrXrXrXrXrXrXrXrXrXrXrXj v b M M M M M m m m m m M m v h f rXrXrXrXrXrXrXrXrXrXrXrXrXrXrXrXrXrXrXrXrXrXrX",
"rXrXrXrXrXrXrXrXrXrXrXrXrXrXrXrXrXrXrXrXrXrXrXrXd d B B B d d d d d d B B B d 2 rXrXrXrXrXrXrXrXrXrXrXrXrXrXrXrXrXrXrXrXrXrXrXrX",
"rXrXrXrXrXrXrXrXrXrXrXrXrXrXrXrXrXrXrXrXrXrXrXrX+ + + + 4 + + + + + + + + + 4 + rXrXrXrXrXrXrXrXrXrXrXrXrXrXrXrXrXrXrXrXrXrXrXrX",
"rXrXrXrXrXrXrXrXrXrXrXrXrXrXrXrXrXrXrXrXrXrXrXrXrX+ + + + + + + + + + + + + + rXrXrXrXrXrXrXrXrXrXrXrXrXrXrXrXrXrXrXrXrXrXrXrXrX",
"rXrXrXrXrXrXrXrXrXrXrXrXrXrXrXrXrXrXrXrXrXrXrXrXrXrXrXrXrXrXrXrXrXrXrXrXrXrXrXrXrXrXrXrXrXrXrXrXrXrXrXrXrXrXrXrXrXrXrXrXrXrXrXrX",
"rXrXrXrXrXrXrXrXrXrXrXrXrXrXrXrXrXrXrXrXrXrXrXrXrXrXrXrXrXrXrXrXrXrXrXrXrXrXrXrXrXrXrXrXrXrXrXrXrXrXrXrXrXrXrXrXrXrXrXrXrXrXrXrX",
"rXrXrXrXrXrXrXrXrXrXrXrXrXrXrXrXrXrXrXrXrXrXrXrXrXrXrXrXrXrXrXrXrXrXrXrXrXrXrXrXrXrXrXrXrXrXrXrXrXrXrXrXrXrXrXrXrXrXrXrXrXrXrXrX",
"rXrXrXrXrXrXrXrXrXrXrXrXrXrXrXrXrXrXrXrXrXrXrXrXrXrXrXrXrXrXrXrXrXrXrXrXrXrXrXrXrXrXrXrXrXrXrXrXrXrXrXrXrXrXrXrXrXrXrXrXrXrXrXrX"
};
