/* XPM */
static char *result[] = {
/* columns rows colors chars-per-pixel */
"64 64 164 2 ",
"   c #000000",
".  c #010D0D",
"X  c #001414",
"o  c #121A1A",
"O  c #3F340A",
"+  c #382F0E",
"@  c #000429",
"#  c #000027",
"$  c #1A2426",
"%  c #242C2C",
"&  c #202C30",
"*  c #2B3333",
"=  c #353933",
"-  c #6F0000",
";  c #7C0000",
":  c #453A0C",
">  c #443806",
",  c #334900",
"<  c #564700",
"1  c #5B4B00",
"2  c #594C1A",
"3  c #564A18",
"4  c #5A5218",
"5  c #4E421A",
"6  c #61531C",
"7  c #524820",
"8  c #5A5538",
"9  c #6D5F2A",
"0  c #6F612B",
"q  c #7A6B2F",
"w  c #70632B",
"e  c #7D6E30",
"r  c #004E4E",
"t  c #3B4343",
"y  c #394949",
"u  c #3A5059",
"i  c #3F6767",
"p  c #464D4D",
"a  c #404747",
"s  c #435354",
"d  c #4C5454",
"f  c #4C5B5B",
"g  c #535A5A",
"h  c #505757",
"j  c #51605F",
"k  c #6A6B58",
"l  c #76765E",
"z  c #4E5F60",
"x  c #445C66",
"c  c #4F6163",
"v  c #556464",
"b  c #5E6565",
"n  c #5B6A6B",
"m  c #5E6863",
"M  c #5E6F70",
"N  c #646C6C",
"B  c #686F6F",
"V  c #647272",
"C  c #6A7373",
"Z  c #6D7C7C",
"A  c #717E7E",
"S  c #787860",
"D  c #830000",
"F  c #8A0000",
"G  c #A53D3D",
"H  c #D20000",
"J  c #E60000",
"K  c #ED0000",
"L  c #F10000",
"P  c red",
"I  c #FE3838",
"U  c #806F2F",
"Y  c #925940",
"T  c #8A5B5B",
"R  c #966F6F",
"E  c #FC6565",
"W  c #FB6B6B",
"Q  c #E3736E",
"!  c #E67474",
"~  c #FC7B7B",
"^  c #FA7777",
"/  c #9E8700",
"(  c #BD9D00",
")  c #968233",
"_  c #9B8736",
"`  c #A9902B",
"'  c #A99234",
"]  c #AA943A",
"[  c #C5AA3A",
"{  c #978643",
"}  c #9C8D51",
"|  c #AF9B4D",
" . c #BEA74D",
".. c #BDA84D",
"X. c #B4A25B",
"o. c #83887B",
"O. c #B7A377",
"+. c #C6AC41",
"@. c #C8AE45",
"#. c #C9B253",
"$. c #D7BE59",
"%. c #D9BF5A",
"&. c #DDC35B",
"*. c #E0C65C",
"=. c #EACE61",
"-. c #FCDF6A",
";. c #FEE36B",
":. c #758383",
">. c #7B8A8A",
",. c #738588",
"<. c #7A8E94",
"1. c #838E8E",
"2. c #929685",
"3. c #849393",
"4. c #889797",
"5. c #8D9B9B",
"6. c #919E9E",
"7. c #94A3A3",
"8. c #99A4A4",
"9. c #9CABAB",
"0. c #A2AFAF",
"q. c #A2A6A6",
"w. c #A4B3B3",
"e. c #A9B7B7",
"r. c #ACBBBB",
"t. c #B1BFBF",
"y. c #FE8282",
"u. c #F49D9D",
"i. c #C7BE8C",
"p. c #F7A2A2",
"a. c #B4C3C3",
"s. c #B9C7C7",
"d. c #BCCBCB",
"f. c #C1CECE",
"g. c #DFCEC7",
"h. c #D6CACA",
"j. c #C4D3D3",
"k. c #C8D7D7",
"l. c #CCDBDB",
"z. c #D0DFDF",
"x. c #ECC0C0",
"c. c #F0CECE",
"v. c #E5DDDD",
"b. c #ECDBDB",
"n. c #E6D5D5",
"m. c #D4E3E3",
"M. c #D8E7E7",
"N. c #DDECEC",
"B. c #D3E9E9",
"V. c #DCF0E7",
"C. c #DFF3F3",
"Z. c #DBFDFD",
"A. c #EAE2E2",
"S. c #E0EFEF",
"D. c #F2E4E5",
"F. c #F3ECEC",
"G. c #F8EAEA",
"H. c #E4F4F4",
"J. c #E8F7F7",
"K. c #E4FDFD",
"L. c #EBFAFA",
"P. c #F2FFFF",
"I. c #FAFFFF",
"U. c #bbbbebff",
/* pixels */
"U.U.U.U.U.U.U.U.U.U.U.U.U.U.U.U.U.U.U.U.U.U.U.U.U.U.U.U.U.U.U.U.U.U.U.U.U.U.U.U.U.U.U.U.U.U.U.U.U.U.U.U.U.U.U.U.U.U.U.U.U.U.U.U.",
"U.U.U.U.U.U.U.U.U.U.U.U.U.U.U.U.U.U.U.U.U.U.U.U.U.U.U.U.U.U.U.U.U.U.U.U.U.U.U.U.U.U.U.U.U.U.U.U.U.U.U.U.U.U.U.U.U.U.U.U.U.U.U.U.",
"U.U.U.U.U.U.U.U.U.U.U.U.U.U.U.U.U.U.U.U.U.U.U.U.U.U.U.U.U.U.U.U.U.U.U.U.U.U.U.U.U.U.U.U.U.U.U.U.U.U.U.U.U.U.U.U.U.U.U.U.U.U.U.U.",
"U.U.U.U.U.U.U.U.U.U.U.U.U.U.U.U.U.U.U.U.U.U.U.U.U.U.U.U.U.U.U.U.U.U.U.U.U.U.U.U.U.U.U.U.U.U.U.U.U.U.U.U.U.U.U.U.U.U.U.U.U.U.U.U.",
"U.U.U.U.U.U.U.U.U.U.U.U.U.U.U.U.        U.U.U.U.U.U.U.U.U.U.U.U.U.U.U.U.U.U.U.U.U.U.U.U.U.U.U.U.U.U.U.U.U.U.U.U.U.U.U.U.U.U.U.U.",
"U.U.U.U.U.U.U.U.U.U.U.U.U.U.U.U.        U.U.U.U.U.U.U.U.U.U.U.U.U.U.U.U.U.U.U.U.U.U.U.U.U.U.U.U.U.U.U.U.U.U.U.U.U.U.U.U.U.U.U.U.",
"U.U.U.U.U.U.U.U.U.U.U.U.U.U.U.U.        U.U.U.U.U.U.U.U.U.U.U.U.U.U.U.U.U.U.U.U.U.U.U.U.U.U.U.U.U.U.U.U.U.U.U.U.U.U.U.U.U.U.U.U.",
"U.U.U.U.U.U.U.U.U.U.U.U.U.U.U.U.; F F ; U.U.U.U.U.U.U.U.U.U.U.U.U.U.U.U.U.U.U.U.U.U.U.U.U.U.U.U.U.U.U.U.U.U.U.U.U.U.U.U.U.U.U.U.",
"U.U.U.U.U.U.U.U.U.U.U.U.      ; H L L H ;               U.U.U.U.U.U.U.U.U.U.U.U.U.U.U.U.U.U.U.U.U.U.U.U.U.U.U.U.U.U.U.U.U.U.U.U.",
"U.U.U.U.U.U.U.U.U.U.U.U.      F L P P L F               U.U.U.U.U.U.U.U.U.U.U.U.U.U.U.U.U.U.U.U.U.U.U.U.U.U.U.U.U.U.U.U.U.U.U.U.",
"U.U.U.U.U.U.U.U.U.U.U.U.  . X - J P P J ;               U.U.U.U.U.U.U.U.U.U.U.U.U.U.U.U.U.U.U.U.U.U.U.U.U.U.U.U.U.U.U.U.U.U.U.U.",
"U.U.U.U.U.U.U.U.U.U.U.U.; F - G ! y.y.! R i n N N N C b U.U.U.U.U.U.U.U.U.U.U.U.U.U.U.U.U.U.U.U.U.U.U.U.U.U.U.U.U.U.U.U.U.U.U.U.",
"U.U.U.U.U.U.U.U.      ; H K J ! c.F.G.A.f.r.t.a.t.a.s.0.N       U.U.U.U.U.U.U.U.U.U.U.U.U.U.U.U.        U.U.U.U.U.U.U.U.U.U.U.U.",
"U.U.U.U.U.U.U.U.      F K P P y.F.L.P.L.m.l.l.l.l.l.m.s.N       U.U.U.U.U.U.U.U.U.U.U.U.U.U.U.U.        U.U.U.U.U.U.U.U.U.U.U.U.",
"U.U.U.U.U.U.U.U.      F J P P y.D.L.P.L.m.l.l.l.k.k.l.r.h       U.U.U.U.U.U.U.U.U.U.U.U.U.U.U.U.        U.U.U.U.U.U.U.U.U.U.U.U.",
"U.U.U.U.U.U.U.U.      ; J P P y.D.P.P.H.j.r.r.s.k.m.m.f.1.g N N U.U.U.U.U.U.U.U.U.U.U.U.U.U.U.U.b C C N U.U.U.U.U.U.U.U.U.U.U.U.",
"U.U.U.U.U.U.U.U.      D J P P y.D.P.I.N.6.t a 5.m.P.P.N.f.r.s.0.N       U.U.U.U.U.U.U.U.      N 0.d.d.0.N       U.U.U.U.U.U.U.U.",
"U.U.U.U.U.U.U.U.      ; J P P ~ D.P.I.m.N     B M.I.I.J.m.l.m.s.N       U.U.U.U.U.U.U.U.      N s.M.M.s.N       U.U.U.U.U.U.U.U.",
"U.U.U.U.U.U.U.U.      ; J P P W D.P.I.m.N     B m.I.P.J.l.j.l.r.h       U.U.U.U.U.U.U.U.      g r.z.l.r.h       U.U.U.U.U.U.U.U.",
"U.U.U.U.U.U.U.U.2 4 , Y ! ~ E p.D.L.P.N.8.N g 8.N.I.P.J.M.l.m.d.1.g N b U.U.U.U.U.U.U.U.N N g 1.d.m.M.d.1.g N N U.U.U.U.U.U.U.U.",
"U.U.U.U.      2 ) ` / O.g.D.b.A.J.J.L.H.z.k.k.m.H.J.J.J.J.J.L.S.d.r.s.0.N             b 0.s.r.d.N.L.L.N.d.r.s.0.b       U.U.U.U.",
"U.U.U.U.      6 | [ ( i.V.K.K.K.J.H.H.J.P.P.P.P.J.H.H.J.P.P.I.L.m.l.M.s.N             N s.m.l.m.L.L.L.J.m.l.m.s.C       U.U.U.U.",
"U.U.U.U.      6 ] [ ( i.V.K.K.K.K.Z.K.K.J.J.H.H.J.H.H.L.P.P.P.L.z.j.z.t.g             g r.l.j.l.H.P.L.H.l.k.l.a.N       U.U.U.U.",
"U.U.U.U.      2 ) ' / O.g.D.A.b.b.b.b.b.H.J.H.J.H.J.H.J.L.L.L.J.z.j.l.s.1.g N N N N g 1.d.m.l.m.H.L.P.J.z.j.l.a.N       U.U.U.U.",
"U.U.U.U.U.U.U.U.2 4 , Y Q ~ ~ ~ ~ ~ W u.A.K.J.J.H.J.H.H.H.H.J.N.z.l.l.k.d.t.a.a.a.s.t.f.M.H.S.H.L.L.L.H.l.j.l.t.N       U.U.U.U.",
"U.U.U.U.U.U.U.U.      ; J P P P P P P E b.K.J.H.J.H.J.H.H.H.H.N.z.l.l.l.z.m.m.m.m.m.m.M.H.J.J.J.L.L.L.H.l.k.l.a.N       U.U.U.U.",
"U.U.U.U.U.U.U.U.      ; J P P P P P P E b.Z.J.H.H.J.J.H.H.H.J.N.z.k.k.l.k.k.k.k.l.l.k.m.H.L.J.L.L.P.L.J.m.k.z.a.N       U.U.U.U.",
"U.U.U.U.U.U.U.U.      D J P P I W ^ E u.A.J.J.H.H.H.H.H.H.N.N.N.M.m.m.m.m.m.m.m.m.m.m.M.N.S.S.S.H.J.H.N.k.d.j.e.b       U.U.U.U.",
"U.U.U.U.U.U.U.U.      D J P P W x.v.n.v.S.N.S.H.C.H.H.N.m.m.l.N.H.L.J.L.J.L.J.J.L.J.L.H.m.l.l.l.l.l.m.k.r.0.e.5.d       U.U.U.U.",
"U.U.U.U.U.U.U.U.      D J P P ~ v.Z.Z.C.N.S.S.S.N.N.N.N.l.k.l.m.L.P.P.P.P.P.P.P.P.P.P.J.l.d.j.d.j.j.j.d.0.5.9.3.d       U.U.U.U.",
"U.U.U.U.U.U.U.U.      F K P P ~ b.Z.Z.H.H.H.H.S.H.N.H.N.m.l.l.m.L.P.P.P.P.P.P.P.P.P.P.J.l.d.j.j.k.l.l.d.w.9.w.5.d       U.U.U.U.",
"U.U.U.U.U.U.U.U.      ; H L J ! h.B.m.m.m.m.m.m.N.S.H.N.m.l.k.m.J.P.P.L.P.P.P.P.P.L.P.L.M.z.l.l.j.d.k.a.7.1.5.>.p       U.U.U.U.",
"U.U.U.U.U.U.U.U.U.U.U.U.; F ; T 9.a.r.r.a.s.s.d.m.H.H.N.z.l.l.m.J.P.P.L.P.L.P.P.P.P.P.L.L.L.L.S.f.a.d.w.Z = d p U.U.U.U.U.U.U.U.",
"U.U.U.U.U.U.U.U.U.U.U.U.      r >.7.6.7.w.e.0.a.m.H.S.N.m.l.l.B.L.P.P.P.P.P.L.P.P.L.L.P.P.P.P.J.j.e.a.9.d       U.U.U.U.U.U.U.U.",
"U.U.U.U.U.U.U.U.U.U.U.U.      s 5.0.9.0.r.r.e.d.N.J.H.C.m.z.z.V.P.I.P.P.P.P.P.P.P.P.P.P.P.I.I.J.k.r.s.0.g       U.U.U.U.U.U.U.U.",
"U.U.U.U.U.U.U.U.U.U.U.U.      d >.5.3.5.9.9.9.r.l.N.M.m.l.d.d.l.S.J.J.L.L.P.L.P.P.L.P.P.L.J.L.N.d.w.t.8.g       U.U.U.U.U.U.U.U.",
"U.U.U.U.U.U.U.U.U.U.U.U.U.U.U.U.s d p j Z :.A 4.r.d.d.a.r.w.0.t.l.m.z.N.L.P.P.P.P.P.P.L.M.z.m.j.e.9.0.5.d       U.U.U.U.U.U.U.U.",
"U.U.U.U.U.U.U.U.U.U.U.U.U.U.U.U.      . f n z Z 9.e.e.w.7.6.5.9.f.l.k.m.L.P.P.P.P.P.P.J.z.d.j.d.0.6.9.4.d       U.U.U.U.U.U.U.U.",
"U.U.U.U.U.U.U.U.U.U.U.U.U.U.U.U.      * v V n :.w.a.a.e.9.7.6.e.j.m.l.M.L.P.P.P.P.P.P.L.m.j.l.f.w.9.0.5.d       U.U.U.U.U.U.U.U.",
"U.U.U.U.U.U.U.U.U.U.U.U.U.U.U.U.      * f v f Z 6.w.9.9.7.6.5.9.s.j.f.l.S.L.J.J.J.J.L.V.j.d.d.a.8.3.5.,.p       U.U.U.U.U.U.U.U.",
"U.U.U.U.U.U.U.U.U.U.U.U.U.U.U.U.U.U.U.U.* * % a V A Z :.1.4.3.5.9.w.w.r.k.z.z.m.z.B.m.k.r.0.e.7.B t h p U.U.U.U.U.U.U.U.U.U.U.U.",
"U.U.U.U.U.U.U.U.U.U.U.U.U.U.U.U.U.U.U.U.      o y f s v :.<.>.3.5.7.6.9.d.k.d.k.d.k.k.s.9.6.9.<.t       U.U.U.U.U.U.U.U.U.U.U.U.",
"U.U.U.U.U.U.U.U.U.U.U.U.U.U.U.U.U.U.U.U.      % f n v n >.3.>.4.7.9.8.w.d.l.k.l.l.l.l.d.e.9.w.5.d       U.U.U.U.U.U.U.U.U.U.U.U.",
"U.U.U.U.U.U.U.U.U.U.U.U.U.U.U.U.U.U.U.U.      % p f s v A >.:.>.4.5.4.9.a.d.d.s.a.s.d.r.6.1.5.>.p       U.U.U.U.U.U.U.U.U.U.U.U.",
"U.U.U.U.U.U.U.U.U.U.U.U.U.U.U.U.U.U.U.U.U.U.U.U.% * $ t v V n M V V V A 5.7.7.5.<.:.>.A j p h p U.U.U.U.U.U.U.U.U.U.U.U.U.U.U.U.",
"U.U.U.U.U.U.U.U.U.U.U.U.U.U.U.U.U.U.U.U.U.U.U.U.      $ s z z z f f d v Z >.>.Z c y u t         U.U.U.U.U.U.U.U.U.U.U.U.U.U.U.U.",
"U.U.U.U.U.U.U.U.U.U.U.U.U.U.U.U.U.U.U.U.U.U.U.U.      $ u x x x v v v n ,.<.<.,.M j m f %       U.U.U.U.U.U.U.U.U.U.U.U.U.U.U.U.",
"U.U.U.U.U.U.U.U.U.U.U.U.U.U.U.U.U.U.U.U.U.U.U.U.      = k S l k j s u N o.2.2.o.v s f s %       U.U.U.U.U.U.U.U.U.U.U.U.U.U.U.U.",
"U.U.U.U.U.U.U.U.U.U.U.U.U.U.U.U.U.U.U.U.U.U.U.U.      7 { | | { 8 # # 8 } X.X.} 8 @ & % U.U.U.U.U.U.U.U.U.U.U.U.U.U.U.U.U.U.U.U.",
"U.U.U.U.U.U.U.U.U.U.U.U.U.U.U.U.U.U.U.U.U.U.U.U.      2 ' +.+.' <     < ` [ [ ` 1       U.U.U.U.U.U.U.U.U.U.U.U.U.U.U.U.U.U.U.U.",
"U.U.U.U.U.U.U.U.U.U.U.U.U.U.U.U.U.U.U.U.U.U.U.U.      : ] @.@.] >     > ' @.@.] 6       U.U.U.U.U.U.U.U.U.U.U.U.U.U.U.U.U.U.U.U.",
"U.U.U.U.U.U.U.U.U.U.U.U.U.U.U.U.U.U.U.U.U.U.U.5 0 q 0 U _ ] ] _ U 9 9 q _ ] ] ) 3       U.U.U.U.U.U.U.U.U.U.U.U.U.U.U.U.U.U.U.U.",
"U.U.U.U.U.U.U.U.U.U.U.U.U.U.U.U.U.U.U.U.      0 ..&.%. .e O O U @.$.$. .U : 4 2 + U.U.U.U.U.U.U.U.U.U.U.U.U.U.U.U.U.U.U.U.U.U.U.",
"U.U.U.U.U.U.U.U.U.U.U.U.U.U.U.U.U.U.U.U.      e &.-.;.%.0     w $.-.-.%.0       U.U.U.U.U.U.U.U.U.U.U.U.U.U.U.U.U.U.U.U.U.U.U.U.",
"U.U.U.U.U.U.U.U.U.U.U.U.U.U.U.U.U.U.U.U.      e &.;.;.*.q     q *.;.;.*.q       U.U.U.U.U.U.U.U.U.U.U.U.U.U.U.U.U.U.U.U.U.U.U.U.",
"U.U.U.U.U.U.U.U.U.U.U.U.U.U.U.U.U.U.U.U.      w #.=.=.#.0     0 #.=.=.#.0       U.U.U.U.U.U.U.U.U.U.U.U.U.U.U.U.U.U.U.U.U.U.U.U.",
"U.U.U.U.U.U.U.U.U.U.U.U.U.U.U.U.U.U.U.U.U.U.U.U.U.U.U.U.U.U.U.U.U.U.U.U.U.U.U.U.U.U.U.U.U.U.U.U.U.U.U.U.U.U.U.U.U.U.U.U.U.U.U.U.",
"U.U.U.U.U.U.U.U.U.U.U.U.U.U.U.U.U.U.U.U.U.U.U.U.U.U.U.U.U.U.U.U.U.U.U.U.U.U.U.U.U.U.U.U.U.U.U.U.U.U.U.U.U.U.U.U.U.U.U.U.U.U.U.U.",
"U.U.U.U.U.U.U.U.U.U.U.U.U.U.U.U.U.U.U.U.U.U.U.U.U.U.U.U.U.U.U.U.U.U.U.U.U.U.U.U.U.U.U.U.U.U.U.U.U.U.U.U.U.U.U.U.U.U.U.U.U.U.U.U.",
"U.U.U.U.U.U.U.U.U.U.U.U.U.U.U.U.U.U.U.U.U.U.U.U.U.U.U.U.U.U.U.U.U.U.U.U.U.U.U.U.U.U.U.U.U.U.U.U.U.U.U.U.U.U.U.U.U.U.U.U.U.U.U.U.",
"U.U.U.U.U.U.U.U.U.U.U.U.U.U.U.U.U.U.U.U.U.U.U.U.U.U.U.U.U.U.U.U.U.U.U.U.U.U.U.U.U.U.U.U.U.U.U.U.U.U.U.U.U.U.U.U.U.U.U.U.U.U.U.U.",
"U.U.U.U.U.U.U.U.U.U.U.U.U.U.U.U.U.U.U.U.U.U.U.U.U.U.U.U.U.U.U.U.U.U.U.U.U.U.U.U.U.U.U.U.U.U.U.U.U.U.U.U.U.U.U.U.U.U.U.U.U.U.U.U.",
"U.U.U.U.U.U.U.U.U.U.U.U.U.U.U.U.U.U.U.U.U.U.U.U.U.U.U.U.U.U.U.U.U.U.U.U.U.U.U.U.U.U.U.U.U.U.U.U.U.U.U.U.U.U.U.U.U.U.U.U.U.U.U.U.",
"U.U.U.U.U.U.U.U.U.U.U.U.U.U.U.U.U.U.U.U.U.U.U.U.U.U.U.U.U.U.U.U.U.U.U.U.U.U.U.U.U.U.U.U.U.U.U.U.U.U.U.U.U.U.U.U.U.U.U.U.U.U.U.U."
};
