/* XPM */
static char *result[] = {
/* columns rows colors chars-per-pixel */
"64 64 123 2 ",
"   c #000001",
".  c #00040B",
"X  c #00090E",
"o  c #000712",
"O  c #000C13",
"+  c #011117",
"@  c #04141A",
"#  c #09161B",
"$  c #0C181E",
"%  c #10191E",
"&  c #051A21",
"*  c #0B1B22",
"=  c #131C23",
"-  c #162027",
";  c #192026",
":  c #15222B",
">  c #1D252C",
",  c #142632",
"<  c #1E2B35",
"1  c #1E2D38",
"2  c #20272E",
"3  c #21282F",
"4  c #242B33",
"5  c #282F37",
"6  c #242F38",
"7  c #282F38",
"8  c #25313B",
"9  c #2B333D",
"0  c #30363F",
"q  c #273340",
"w  c #2D3642",
"e  c #2E3944",
"r  c #2E3B49",
"t  c #313740",
"y  c #313A45",
"u  c #383D47",
"i  c #333E4A",
"p  c #3A3F49",
"a  c #36414E",
"s  c #3B404B",
"d  c #374350",
"f  c #3A4553",
"g  c #3C4857",
"h  c #3E4959",
"j  c #414651",
"k  c #444955",
"l  c #434D5D",
"z  c #494E5B",
"x  c #4B505D",
"c  c #444F62",
"v  c #465063",
"b  c #495366",
"n  c #46516B",
"m  c #4C556B",
"M  c #4F586D",
"N  c #535867",
"B  c #525A6D",
"V  c #5A5E6C",
"C  c #4E5771",
"Z  c #4E5872",
"A  c #535C74",
"S  c #555E79",
"D  c #5C606F",
"F  c #576077",
"G  c #5C6273",
"H  c #57607A",
"J  c #5A637C",
"K  c #5F687C",
"L  c #606574",
"P  c #60677A",
"I  c #656B7D",
"U  c #686D7D",
"Y  c #5E6681",
"T  c #5F6881",
"R  c #626A84",
"E  c #686E81",
"W  c #666E89",
"Q  c #686F8A",
"!  c #6E7384",
"~  c #6B738C",
"^  c #707587",
"/  c #727789",
"(  c #757A8C",
")  c #787D8F",
"_  c #6F7690",
"`  c #707791",
"'  c #747B94",
"]  c #797E91",
"[  c #777E98",
"{  c #787F99",
"}  c #7C8194",
"|  c #7C839C",
" . c #82879C",
".. c #8087A1",
"X. c #848BA4",
"o. c #898EA6",
"O. c #878EA8",
"+. c #898FA9",
"@. c #8C91A6",
"#. c #8C92AB",
"$. c #9196AC",
"%. c #9399AF",
"&. c #8F96B0",
"*. c #9097B1",
"=. c #959BB3",
"-. c #999FB5",
";. c #979EB8",
":. c #999FB8",
">. c #9BA0B7",
",. c #9CA2BC",
"<. c #9FA6C0",
"1. c #A0A7C1",
"2. c #A4ABC4",
"3. c #A8AEC7",
"4. c #A7AEC8",
"5. c #A9AFC8",
"6. c #ACB2CC",
"7. c #B0B6CF",
"8. c #AFB5D0",
"9. c #B0B6D1",
"0. c #B4BAD4",
"q. c #B9BFD9",
"w. c None",
/* pixels */
"w.w.w.w.w.w.w.w.                                      . = 3 5 5 4 4 4 5 5 5 3 = .                               w.w.w.w.w.w.w.w.",
"w.w.w.w.w.w.w.w.                                      @ ; 4 4 5 4 4 4 4 4 4 4 ; @                               w.w.w.w.w.w.w.w.",
"w.w.w.w.w.w.w.w.k k k z z k k k k k k k k k k k z k k s t 7 4 3 4 4 4 3 > 3 5 9 p k k k k k k j j k k k z z k k w.w.w.w.w.w.w.w.",
"w.w.w.w.w.w.w.N U ^ } } ( ( / ^ / / ! ! ! ! ^ / ( ( ! L x 0 = $ > 4 4 *     4 k G ! ) ) ( ^ ! ^ ^ ^ ^ ( ] ) ^ E D w.w.w.w.w.w.w.",
"w.w.w.w.w.  > D  .$.>.,.>.=.%.%.$.$.$.#.#.$.*.=.>.>.$.} L s X   = 5 >       > V ] $.-.-.=.$.$.$.$.$.$.=.>.>.$. .U j   w.w.w.w.w.",
"w.w.w.w.    0 U @.1.9.9.6.6.5.5.3.3.3.2.3.2.4.5.6.6.2.#.U j     $ 4 3       0 U o.1.7.7.6.5.2.2.2.2.2.6.7.7.2.@.^ j     w.w.w.w.",
"w.w.w.w.> 0 G  .=.3.0.0.9.8.7.7.9.0.9.0.0.9.9.0.0.0.3.#./ k X   + 2 5 4 > 9 N } $.4.0.0.0.9.0.0.0.0.0.0.0.0.2.=.( z .   w.w.w.w.",
"w.w.w.N G U  .@.=.>.1.1.1.,.1.3.6.0.0.q.q.0.9.8.6.4.;. .U z :   O - 0 k V U }  .*.,.2.5.9.9.0.0.0.0.0.9.9.3.:.o.^ b : X * w.w.w.",
"    k U } @.;.=.#.X.........&.:.2.8.9.0.0.0.8.4.,.&.| ~ J l q & X $ u G ) o.%.%.o.o.+.:.2.8.0.0.0.0.8.2.,.&.| _ J z w < < 5 2 > ",
"    k ! $.1.3.,.O._ T Y R Q [ #.,.5.9.0.0.9.5.,.+.| Q F b l a 1 . O j ! $.1.3.:.X.` ` X.:.5.9.0.0.9.4.,.#.| Q F B l i w 8 5 2 4 ",
"    z } ,.7.0.3.#.` T A Z S Q | ;.4.9.0.0.9.4.>.| ~ Z n b l d 1   . k ( -.7.9.<.| R R { =.5.0.0.0.0.4.;.| ~ Z n c c f i t 8 4 4 ",
"    k } ,.7.0.6.,.#.| ~ Y S W | >.6.0.q.q.0.6.>.| ~ C c v l f 8 .   k ( -.7.0.<...R R { ;.5.0.q.q.0.6.,...Q C n c l g i y 9 4 4 ",
"    k ( =.6.0.0.5.<.,.| _ Y R | ,.5.0.q.q.0.6.,.O.~ H b b l d 8   . k ( -.7.7.<...R R  .:.6.0.q.q.0.6.,.+.~ A n v l f i w 8 4 3 ",
"    k ^ $.3.9.0.0.8.4.=.| W Q ..>.6.0.q.q.0.6.,.O._ F C b l d 1 . o k / %.3.7.,...W W ..:.5.0.0.q.0.6.,.+._ H m b l a y 9 5 3 3 ",
"    k ! #.5.0.0.0.8.4.=.| Q Q | *.2.6.6.9.6.2.=.X._ H Z b l a 1   X k / %.3.7.<.X.W R { =.2.5.8.8.6.3.=..._ H M b l f y 9 5 4 2 ",
"    k / *.4.9.8.5.2.>.O.[ Q Q ' O.=.,.<.<.,.=.O.| ~ K Z b l a 1   . k / -.7.7.<.X.W R ~ X.=.<.<.,.>.=.#.| ~ Y A m l a i 9 5 3 3 ",
"    k ^ %.3.7.5.,.#.| | ~ W Q _ | | O.O.O.O.| | ` Q Y S m l a 1     k ) >.9.0.2.| W S Y ' | O.O.+...| | ` ~ T F m l d e w 7 3 3 ",
"    k / %.6.6.1.#.| ~ T T T W Q _ ` _ _ _ _ _ ~ Q W T F m l a 1     k ) >.6.9.1.+.W S Y W Q _ ~ _ _ _ _ ~ W R H B l a e 9 8 3 3 ",
"    k ( =.5.6.1.+.~ S S Y Y T T H H J J Y J J R W W I J M l a 6 O O j U #.1.3.,.&.[ Q T T Y Y Y Y Y Y Y R R J F m l d i 9 5 3 3 ",
"    k ( =.6.6.<.| W Z C H H H Z Z M C Z A H J T R R T H m l a 8 & $ u D } @.$.=.*.+.| | _ Y H H H H Y H J J F B b l g i w 7 4 3 ",
"    k / =.5.7.<.+.~ S C M M b v v v m M H J T W Q R T H m h i 8 : - 9 k V U ( @.=.<.<.*.| ~ J H Y T T J F Z m v c l g i e 7 3 3 ",
"    k ( =.5.6.<.+.` H C b v h d g g v M F T W W Q R T F m g a w 8 4 2 2 > 0 N } >.5.6.<.O._ T T T W T J B v g g g l g p t 7 3 2 ",
"    k / %.5.7.<.+.` H m v h a a i a g m F Y W W Q R R H B b g a y 0 3       t U #.3.4.,.X.Q K H T W Y A b g d d g g d i 9 5 4 2 ",
"    k ( =.6.6.1.#.` H b c g a e e r g b A Y W W Q W R K F B b l f i 8 X     > D } $.=.#.} R Z Z H H A M v g d a i a i y 9 5 4 3 ",
"    k ( =.6.6.1.#._ H m c g i e e a f b F K Q Q Q Q W T T J A m z f y < O   4 k L ^ ( ! J B b m M M m n c l g d i y w 8 5 5 4 3 ",
"    k / $.6.6.1.+._ H m c g a i a a h b F T R Q W R W W R T J F b l a w 8 4 4 0 u j k z l l v l c l l c l h g i y 9 4 4 4 4 4 4 ",
"    k ( =.6.6.<.+._ H Z b v k g g h v M H R W R R R T T Q Q R J B c d i w 5 > % .   X - 9 a d f d a d d d d d i 9 4 2 2 4 4 4 4 ",
"    k ( -.6.8.2.#._ Y A A M m m b M M F T R R R J F F Y R Q Q J A c f i t 5 > #         * 1 1 8 6 1 6 6 q q q 6 4 4 2 3 3 4 4 4 ",
"    z ( >.9.0.3.&.` Y S H J G H J J J T R Q R K S m M F R Q W J A b f i e 8 2 = = # + O . . .     . . . . o @ * ; 2 4 4 4 4 4 4 ",
"    k ( >.6.9.2.#._ Y H R R R R T I T W W Q T J m l l B J R Q J B l d i w 5 4 3 4 4 2 ; * O .   . X X     . O * ; 4 4 5 5 4 4 4 ",
"    k ! $.2.2.>.X.~ H H Y R R R R T R T R R T A v g g b F K T F m l a y 8 5 3 2 2 2 5 0 u j k k k k j k k k j u t 7 3 2 3 4 4 4 ",
". # s L } @.$.X.` P S A S H J J K J J K J H F m l g f l M F F B b d y 9 9 5 2 %     3 k L E ( ) / / / ( ( ( ^ L x t = % > 4 4 4 ",
"= ; t x G ! ! ! J B m n M M B M A M M M A M M c l g g v b m m c f y 9 7 9 5 2       > V ) @.>.>.>.%.=.=.:.-.@.} L s X   = 3 4 4 ",
"3 4 5 0 p j l l l l c c l l c l l l c l l l l c h g g h l l l f i 9 4 4 4 5 2       t U @.1.6.9.6.6.6.6.8.8.1.@.! j     @ 4 4 4 ",
"5 4 4 = X   X - 9 a f f d d d d a a d d a a i d g f f f g f s i 9 4 2 2 > 4 5 4 > 0 N ) %.3.9.9.9.6.6.7.0.0.3.#.^ k X   $ 4 4 4 ",
"5 5 3 %         & < 6 6 1 6 6 4 8 1 4 1 1 1 6 6 8 8 9 w e i i 9 7 4 2 = $ ; 0 k V U ] X.%.,.1.3.1.1.1.2.4.2.>.X.! k : + - 4 4 4 ",
"4 4 4 > = $ + O X .   .   . . .   .   .   . . . . . @ = 4 9 9 9 5 4 3 %   # a G ) @.%.=.#.+.+.O.#.#.#.&.&.#.X.( P l 9 < 4 4 4 4 ",
"4 4 4 4 5 4 2 ; $ O .   . . . . X X X . . . . .   . @ * > 4 8 7 5 4 4 $     j ^ #.1.3.>.+.[ W W ~ _ ` ` ` _ ~ R A l i w 8 5 4 > ",
"4 4 4 4 > 2 5 0 u j k k k j j j k k j j k j j k k k f p 0 5 2 > 3 4 4 +     k ) :.8.8.<.+.~ S C A H H H Y S S A b l f i w 6 2 2 ",
"5 4 3 *     4 k G ! ( ( ^ ^ ! ^ ^ E ^ ^ / / / ( ] ( ! L z 9 % # ; 4 4 +     k ) ,.8.0.2.+.Q C n m C m M C C M n v l f a t 7 3 2 ",
"5 4 2       > V ] $.-.-.%.$.$.$.@.$.$.$.%.-.%.-.>.>.#.} L s .   * 2 4 +     k ( -.6.7.1.+._ S C m b c v v c v c l h f i w 6 4 2 ",
"5 4 >       0 U o.1.7.7.5.3.1.3.2.3.3.3.5.5.5.5.8.8.1.@.! j     # 4 4 @     k ( =.6.6.1.+._ S C b l g g g l l l l g g i t 7 4 2 ",
"2 4 5 4 > t V ( %.2.0.0.0.0.0.0.0.0.0.0.7.7.7.0.0.9.3.#.^ k X   $ 4 4 +     k / %.6.6.1.+._ S m v g a a f f f f g h g a w 5 2 3 ",
"= ; 9 z N U ]  .*.:.4.5.7.0.0.0.0.0.0.5.3.1.<.<.2.2.>.O.! k - @ ; 4 2       s ^ =.6.9.2.&.` H m c g a r i a f f g g g a e 5 4 3 ",
". @ s G } @.$.$.+.o.+.;.2.9.0.0.0.0.9.2.;.+.+.+.&.#...' J l 9 < 6 6 >       0 ! =.7.8.2.#._ S m c g r r i a d f f l f d t 6 3 2 ",
"  . k ^ #.2.3.>...` ' X.;.5.9.0.0.9.5.:.+.' W W ` ` _ T B l a w 9 8 >       u ^ =.6.0.2.&.` H m c g a a d d f f g g g i e 7 4 2 ",
"    k ( >.6.9.1...R R { =.4.0.0.0.0.5.;...Q S A H H F A b l f i 9 5 4 3 2 0 N ) %.2.3.,.+._ H C b v h g l l l l l g f p w 7 3 2 ",
"    k ] >.9.0.1...Y R { ;.5.0.0.q.0.5.;.X.R A n m m n v v l g r 5 > 9 k V I ) X.%.-.-.@.{ Q S A B m m m M M m b c l f i w 7 2 4 ",
"    k ( -.6.7.<.X.R W | >.6.0.q.q.0.6.,.O.~ S n n v c g l h g w : * s D } @.$.=.#.O.| | ~ T H S F F F G H J H A b l f i 9 5 3 2 ",
"    k ( =.5.6.,.| Q Q | >.6.0.q.q.0.6.,.O._ H m v l g g g g g q @ + s ! @.2.4.,.+.' W Y T T H K T R R R W R I F M l d y w 5 4 3 ",
"    k ( =.6.8.,...Q Q | *.2.6.8.8.6.2.;.| _ H Z n l g g g g d 8 o . k ( >.6.0.<.O.~ S H T _ _ ~ Q Q R R W R K F m l f y 9 5 3 3 ",
"    k ) :.6.8.2.#.~ R ` +.=.,.<.<.,.=.+.| _ T F A M v l v g g 8     k } >.0.0.2.| W Y W | | O.| [ ~ R R R J F A b l f i w 5 4 4 ",
"    z } >.9.0.2.&.` T Q [ | +.+.#.+.| | ' ~ R T J J F M m l g 8     k ) >.0.0.2.#.~ T | &.,.,.>..._ T F S A m v c l f a e 9 4 4 ",
"    z ] >.7.0.2.+.` T T W _ ` ` ` ` ` _ Q Q R R W W Y F M l d 4   . k ( >.7.0.2.+.~ W | ,.5.5.,.#.` Y Z m c g g h h k d y 9 4 4 ",
"    k ^ $.2.3.>..._ J A F H Y H F H J J T T T R W W J F m l a 1 X O j ! #.1.2.>.| W T | >.4.5.,.X.~ F b l g d d g g d i t 6 2 2 ",
"    k U  .@.=.@.' T A C Z C C n m M Z Z A F J K J J G B v f y < @ * u L } @.&.X.~ H T ' X.>.>.+.[ R Z v l g d d d d i y w 7 4 > ",
"w.w.w.D U ! ( / K A m b b b b v v b m m m m B M A B m b f i 8 4 = : t x L ! ^ E H B B K ~ } } _ I A n c c k f d d i t 9 8 w.w.w.",
"w.w.w.w.j k x b l l l l h v h c l l h l l l l l c l l f i 9 4 3 2 4 7 t p j k k h l v b N M M b b c l l h l g f i y 4 4 w.w.w.w.",
"w.w.w.w.    X : w a d a d d f d a f a a d d f a f d a y 9 5 2 3 4 4 2 = X   O : w i d a r e e r y d g g g g f i y 4 2 ; w.w.w.w.",
"w.w.w.w.w.    . 1 w a a a e a e t i i i i e e i y i y 9 5 3 > 2 5 5 2 $       @ 4 e r w 1 , , 1 8 e i i i i i y 9 3 > w.w.w.w.w.",
"w.w.w.w.w.w.w.* < 9 e e 9 9 9 e 9 9 w 9 w 9 9 9 w w 9 8 5 4 4 4 4 4 4 ; = @ $ ; 4 9 w 9 6 < < 4 9 9 w t y y t 9 9 w.w.w.w.w.w.w.",
"w.w.w.w.w.w.w.w.4 7 7 9 8 7 7 7 5 5 7 5 5 5 7 5 5 5 5 5 4 4 4 4 4 4 4 4 4 3 4 5 4 5 6 5 6 4 5 5 6 6 7 7 9 8 7 7 w.w.w.w.w.w.w.w.",
"w.w.w.w.w.w.w.w.3 3 4 4 4 3 3 3 4 3 3 3 4 3 4 3 3 3 3 4 4 4 4 4 4 4 4 4 4 4 4 4 2 4 4 2 2 4 4 3 2 4 4 4 4 4 2 4 w.w.w.w.w.w.w.w.",
"w.w.w.w.w.w.w.w.3 3 4 4 4 3 3 3 3 3 3 3 3 3 3 2 2 2 2 3 4 4 4 4 4 4 4 4 4 4 4 4 4 2 2 2 2 2 2 4 > 4 2 2 4 4 2 2 w.w.w.w.w.w.w.w."
};
